<svg xmlns="http://www.w3.org/2000/svg" width="1120" height="430" viewBox="0 0 1120 430">
<rect width="100%" height="100%" fill="white"/>
<text x="560" y="27" text-anchor="middle" font-family="sans-serif" font-size="30.5">Finite-size flow at published critical points</text>
<line x1="185" y1="57" x2="213" y2="57" stroke="#2563eb" stroke-width="3"/>
<text x="221" y="62" font-family="sans-serif" font-size="20.4">σ=1.75</text>
<line x1="355" y1="57" x2="383" y2="57" stroke="#16a34a" stroke-width="3"/>
<text x="391" y="62" font-family="sans-serif" font-size="20.4">σ=1.875</text>
<line x1="525" y1="57" x2="553" y2="57" stroke="#dc2626" stroke-width="3"/>
<text x="561" y="62" font-family="sans-serif" font-size="20.4">σ=2</text>
<line x1="695" y1="57" x2="723" y2="57" stroke="#7c3aed" stroke-width="3"/>
<text x="731" y="62" font-family="sans-serif" font-size="20.4">σ=2.5</text>
<rect x="70" y="82" width="450" height="273" fill="none" stroke="#555"/>
<line x1="70.0" y1="355" x2="70.0" y2="360" stroke="#555"/>
<text x="70.0" y="377" text-anchor="middle" font-family="sans-serif" font-size="20.4">64</text>
<line x1="160.0" y1="355" x2="160.0" y2="360" stroke="#555"/>
<text x="160.0" y="377" text-anchor="middle" font-family="sans-serif" font-size="20.4">128</text>
<line x1="250.0" y1="355" x2="250.0" y2="360" stroke="#555"/>
<text x="250.0" y="377" text-anchor="middle" font-family="sans-serif" font-size="20.4">256</text>
<line x1="340.0" y1="355" x2="340.0" y2="360" stroke="#555"/>
<text x="340.0" y="377" text-anchor="middle" font-family="sans-serif" font-size="20.4">512</text>
<line x1="430.0" y1="355" x2="430.0" y2="360" stroke="#555"/>
<text x="430.0" y="377" text-anchor="middle" font-family="sans-serif" font-size="20.4">1024</text>
<line x1="520.0" y1="355" x2="520.0" y2="360" stroke="#555"/>
<text x="520.0" y="377" text-anchor="middle" font-family="sans-serif" font-size="20.4">2048</text>
<line x1="70" y1="355.0" x2="520" y2="355.0" stroke="#e5e7eb"/>
<text x="62" y="359.0" text-anchor="end" font-family="sans-serif" font-size="20.4">-0.64</text>
<line x1="70" y1="286.8" x2="520" y2="286.8" stroke="#e5e7eb"/>
<text x="62" y="290.8" text-anchor="end" font-family="sans-serif" font-size="20.4">-0.46</text>
<line x1="70" y1="218.5" x2="520" y2="218.5" stroke="#e5e7eb"/>
<text x="62" y="222.5" text-anchor="end" font-family="sans-serif" font-size="20.4">-0.28</text>
<line x1="70" y1="150.2" x2="520" y2="150.2" stroke="#e5e7eb"/>
<text x="62" y="154.2" text-anchor="end" font-family="sans-serif" font-size="20.4">-0.10</text>
<line x1="70" y1="82.0" x2="520" y2="82.0" stroke="#e5e7eb"/>
<text x="62" y="86.0" text-anchor="end" font-family="sans-serif" font-size="20.4">0.08</text>
<line x1="70" y1="112.3" x2="520" y2="112.3" stroke="#111" stroke-dasharray="6,5"/>
<text x="508" y="101.3" text-anchor="end" font-family="sans-serif" font-size="18.7">short-range anchor</text>
<text x="295.0" y="408" text-anchor="middle" font-family="sans-serif" font-size="20.4">L</text>
<text x="21" y="218.5" text-anchor="middle" font-family="sans-serif" font-size="20.4" transform="rotate(-90 21 218.5)">Rₚ</text>
<line x1="70.0" y1="329.5" x2="70.0" y2="329.5" stroke="#2563eb"/>
<circle cx="70.0" cy="329.5" r="3.5" fill="#2563eb"/>
<line x1="160.0" y1="316.5" x2="160.0" y2="311.1" stroke="#2563eb"/>
<circle cx="160.0" cy="313.8" r="3.5" fill="#2563eb"/>
<line x1="250.0" y1="308.1" x2="250.0" y2="302.6" stroke="#2563eb"/>
<circle cx="250.0" cy="305.4" r="3.5" fill="#2563eb"/>
<line x1="340.0" y1="285.8" x2="340.0" y2="283.3" stroke="#2563eb"/>
<circle cx="340.0" cy="284.6" r="3.5" fill="#2563eb"/>
<line x1="392.6" y1="288.0" x2="392.6" y2="282.9" stroke="#2563eb"/>
<circle cx="392.6" cy="285.4" r="3.5" fill="#2563eb"/>
<line x1="430.0" y1="275.5" x2="430.0" y2="274.9" stroke="#2563eb"/>
<circle cx="430.0" cy="275.2" r="3.5" fill="#2563eb"/>
<line x1="482.6" y1="263.7" x2="482.6" y2="251.5" stroke="#2563eb"/>
<circle cx="482.6" cy="257.6" r="3.5" fill="#2563eb"/>
<line x1="520.0" y1="255.8" x2="520.0" y2="254.6" stroke="#2563eb"/>
<circle cx="520.0" cy="255.2" r="3.5" fill="#2563eb"/>
<polyline points="70.0,329.5 160.0,313.8 250.0,305.4 340.0,284.6 392.6,285.4 430.0,275.2 482.6,257.6 520.0,255.2" fill="none" stroke="#2563eb" stroke-width="2"/>
<line x1="70.0" y1="269.3" x2="70.0" y2="265.5" stroke="#16a34a"/>
<circle cx="70.0" cy="267.4" r="3.5" fill="#16a34a"/>
<line x1="160.0" y1="253.7" x2="160.0" y2="246.7" stroke="#16a34a"/>
<circle cx="160.0" cy="250.2" r="3.5" fill="#16a34a"/>
<line x1="250.0" y1="229.1" x2="250.0" y2="225.7" stroke="#16a34a"/>
<circle cx="250.0" cy="227.4" r="3.5" fill="#16a34a"/>
<line x1="340.0" y1="216.9" x2="340.0" y2="213.8" stroke="#16a34a"/>
<circle cx="340.0" cy="215.4" r="3.5" fill="#16a34a"/>
<line x1="392.6" y1="214.6" x2="392.6" y2="203.0" stroke="#16a34a"/>
<circle cx="392.6" cy="208.8" r="3.5" fill="#16a34a"/>
<line x1="430.0" y1="203.1" x2="430.0" y2="200.1" stroke="#16a34a"/>
<circle cx="430.0" cy="201.6" r="3.5" fill="#16a34a"/>
<line x1="482.6" y1="205.4" x2="482.6" y2="190.0" stroke="#16a34a"/>
<circle cx="482.6" cy="197.7" r="3.5" fill="#16a34a"/>
<line x1="520.0" y1="187.7" x2="520.0" y2="179.9" stroke="#16a34a"/>
<circle cx="520.0" cy="183.8" r="3.5" fill="#16a34a"/>
<polyline points="70.0,267.4 160.0,250.2 250.0,227.4 340.0,215.4 392.6,208.8 430.0,201.6 482.6,197.7 520.0,183.8" fill="none" stroke="#16a34a" stroke-width="2"/>
<line x1="70.0" y1="216.4" x2="70.0" y2="215.6" stroke="#dc2626"/>
<circle cx="70.0" cy="216.0" r="3.5" fill="#dc2626"/>
<line x1="160.0" y1="200.5" x2="160.0" y2="184.3" stroke="#dc2626"/>
<circle cx="160.0" cy="192.4" r="3.5" fill="#dc2626"/>
<line x1="250.0" y1="184.5" x2="250.0" y2="182.8" stroke="#dc2626"/>
<circle cx="250.0" cy="183.7" r="3.5" fill="#dc2626"/>
<line x1="340.0" y1="164.5" x2="340.0" y2="159.3" stroke="#dc2626"/>
<circle cx="340.0" cy="161.9" r="3.5" fill="#dc2626"/>
<line x1="392.6" y1="161.8" x2="392.6" y2="154.1" stroke="#dc2626"/>
<circle cx="392.6" cy="158.0" r="3.5" fill="#dc2626"/>
<line x1="430.0" y1="165.9" x2="430.0" y2="154.6" stroke="#dc2626"/>
<circle cx="430.0" cy="160.3" r="3.5" fill="#dc2626"/>
<line x1="482.6" y1="152.3" x2="482.6" y2="141.2" stroke="#dc2626"/>
<circle cx="482.6" cy="146.7" r="3.5" fill="#dc2626"/>
<line x1="520.0" y1="141.9" x2="520.0" y2="140.5" stroke="#dc2626"/>
<circle cx="520.0" cy="141.2" r="3.5" fill="#dc2626"/>
<polyline points="70.0,216.0 160.0,192.4 250.0,183.7 340.0,161.9 392.6,158.0 430.0,160.3 482.6,146.7 520.0,141.2" fill="none" stroke="#dc2626" stroke-width="2"/>
<line x1="70.0" y1="127.8" x2="70.0" y2="122.4" stroke="#7c3aed"/>
<circle cx="70.0" cy="125.1" r="3.5" fill="#7c3aed"/>
<line x1="160.0" y1="114.3" x2="160.0" y2="114.2" stroke="#7c3aed"/>
<circle cx="160.0" cy="114.3" r="3.5" fill="#7c3aed"/>
<line x1="250.0" y1="113.5" x2="250.0" y2="109.2" stroke="#7c3aed"/>
<circle cx="250.0" cy="111.3" r="3.5" fill="#7c3aed"/>
<line x1="340.0" y1="111.2" x2="340.0" y2="106.5" stroke="#7c3aed"/>
<circle cx="340.0" cy="108.8" r="3.5" fill="#7c3aed"/>
<line x1="392.6" y1="113.2" x2="392.6" y2="109.1" stroke="#7c3aed"/>
<circle cx="392.6" cy="111.1" r="3.5" fill="#7c3aed"/>
<circle cx="430.0" cy="96.6" r="3.5" fill="#7c3aed"/>
<line x1="482.6" y1="115.3" x2="482.6" y2="102.2" stroke="#7c3aed"/>
<circle cx="482.6" cy="108.8" r="3.5" fill="#7c3aed"/>
<circle cx="520.0" cy="108.3" r="3.5" fill="#7c3aed"/>
<polyline points="70.0,125.1 160.0,114.3 250.0,111.3 340.0,108.8 392.6,111.1 430.0,96.6 482.6,108.8 520.0,108.3" fill="none" stroke="#7c3aed" stroke-width="2"/>
<rect x="615" y="82" width="450" height="273" fill="none" stroke="#555"/>
<line x1="615.0" y1="355" x2="615.0" y2="360" stroke="#555"/>
<text x="615.0" y="377" text-anchor="middle" font-family="sans-serif" font-size="20.4">64</text>
<line x1="705.0" y1="355" x2="705.0" y2="360" stroke="#555"/>
<text x="705.0" y="377" text-anchor="middle" font-family="sans-serif" font-size="20.4">128</text>
<line x1="795.0" y1="355" x2="795.0" y2="360" stroke="#555"/>
<text x="795.0" y="377" text-anchor="middle" font-family="sans-serif" font-size="20.4">256</text>
<line x1="885.0" y1="355" x2="885.0" y2="360" stroke="#555"/>
<text x="885.0" y="377" text-anchor="middle" font-family="sans-serif" font-size="20.4">512</text>
<line x1="975.0" y1="355" x2="975.0" y2="360" stroke="#555"/>
<text x="975.0" y="377" text-anchor="middle" font-family="sans-serif" font-size="20.4">1024</text>
<line x1="1065.0" y1="355" x2="1065.0" y2="360" stroke="#555"/>
<text x="1065.0" y="377" text-anchor="middle" font-family="sans-serif" font-size="20.4">2048</text>
<line x1="615" y1="355.0" x2="1065" y2="355.0" stroke="#e5e7eb"/>
<text x="607" y="359.0" text-anchor="end" font-family="sans-serif" font-size="20.4">0.68</text>
<line x1="615" y1="286.8" x2="1065" y2="286.8" stroke="#e5e7eb"/>
<text x="607" y="290.8" text-anchor="end" font-family="sans-serif" font-size="20.4">0.73</text>
<line x1="615" y1="218.5" x2="1065" y2="218.5" stroke="#e5e7eb"/>
<text x="607" y="222.5" text-anchor="end" font-family="sans-serif" font-size="20.4">0.78</text>
<line x1="615" y1="150.2" x2="1065" y2="150.2" stroke="#e5e7eb"/>
<text x="607" y="154.2" text-anchor="end" font-family="sans-serif" font-size="20.4">0.83</text>
<line x1="615" y1="82.0" x2="1065" y2="82.0" stroke="#e5e7eb"/>
<text x="607" y="86.0" text-anchor="end" font-family="sans-serif" font-size="20.4">0.88</text>
<line x1="615" y1="113.4" x2="1065" y2="113.4" stroke="#111" stroke-dasharray="6,5"/>
<text x="1053" y="102.4" text-anchor="end" font-family="sans-serif" font-size="18.7">short-range anchor</text>
<text x="840.0" y="408" text-anchor="middle" font-family="sans-serif" font-size="20.4">L</text>
<text x="566" y="218.5" text-anchor="middle" font-family="sans-serif" font-size="20.4" transform="rotate(-90 566 218.5)">Qₘ</text>
<line x1="615.0" y1="330.1" x2="615.0" y2="327.8" stroke="#2563eb"/>
<circle cx="615.0" cy="329.0" r="3.5" fill="#2563eb"/>
<line x1="705.0" y1="309.2" x2="705.0" y2="304.7" stroke="#2563eb"/>
<circle cx="705.0" cy="306.9" r="3.5" fill="#2563eb"/>
<line x1="795.0" y1="294.6" x2="795.0" y2="292.0" stroke="#2563eb"/>
<circle cx="795.0" cy="293.3" r="3.5" fill="#2563eb"/>
<line x1="885.0" y1="271.1" x2="885.0" y2="269.7" stroke="#2563eb"/>
<circle cx="885.0" cy="270.4" r="3.5" fill="#2563eb"/>
<line x1="937.6" y1="271.9" x2="937.6" y2="270.6" stroke="#2563eb"/>
<circle cx="937.6" cy="271.3" r="3.5" fill="#2563eb"/>
<line x1="975.0" y1="261.9" x2="975.0" y2="256.4" stroke="#2563eb"/>
<circle cx="975.0" cy="259.1" r="3.5" fill="#2563eb"/>
<line x1="1027.6" y1="254.4" x2="1027.6" y2="243.7" stroke="#2563eb"/>
<circle cx="1027.6" cy="249.0" r="3.5" fill="#2563eb"/>
<line x1="1065.0" y1="242.1" x2="1065.0" y2="236.2" stroke="#2563eb"/>
<circle cx="1065.0" cy="239.2" r="3.5" fill="#2563eb"/>
<polyline points="615.0,329.0 705.0,306.9 795.0,293.3 885.0,270.4 937.6,271.3 975.0,259.1 1027.6,249.0 1065.0,239.2" fill="none" stroke="#2563eb" stroke-width="2"/>
<line x1="615.0" y1="270.1" x2="615.0" y2="266.3" stroke="#16a34a"/>
<circle cx="615.0" cy="268.2" r="3.5" fill="#16a34a"/>
<line x1="705.0" y1="253.2" x2="705.0" y2="244.6" stroke="#16a34a"/>
<circle cx="705.0" cy="248.9" r="3.5" fill="#16a34a"/>
<line x1="795.0" y1="229.3" x2="795.0" y2="223.9" stroke="#16a34a"/>
<circle cx="795.0" cy="226.6" r="3.5" fill="#16a34a"/>
<line x1="885.0" y1="213.5" x2="885.0" y2="209.2" stroke="#16a34a"/>
<circle cx="885.0" cy="211.4" r="3.5" fill="#16a34a"/>
<line x1="937.6" y1="208.3" x2="937.6" y2="200.1" stroke="#16a34a"/>
<circle cx="937.6" cy="204.2" r="3.5" fill="#16a34a"/>
<line x1="975.0" y1="196.1" x2="975.0" y2="192.6" stroke="#16a34a"/>
<circle cx="975.0" cy="194.3" r="3.5" fill="#16a34a"/>
<line x1="1027.6" y1="196.4" x2="1027.6" y2="186.0" stroke="#16a34a"/>
<circle cx="1027.6" cy="191.2" r="3.5" fill="#16a34a"/>
<line x1="1065.0" y1="185.5" x2="1065.0" y2="180.8" stroke="#16a34a"/>
<circle cx="1065.0" cy="183.2" r="3.5" fill="#16a34a"/>
<polyline points="615.0,268.2 705.0,248.9 795.0,226.6 885.0,211.4 937.6,204.2 975.0,194.3 1027.6,191.2 1065.0,183.2" fill="none" stroke="#16a34a" stroke-width="2"/>
<line x1="615.0" y1="225.8" x2="615.0" y2="224.0" stroke="#dc2626"/>
<circle cx="615.0" cy="224.9" r="3.5" fill="#dc2626"/>
<line x1="705.0" y1="206.7" x2="705.0" y2="192.1" stroke="#dc2626"/>
<circle cx="705.0" cy="199.4" r="3.5" fill="#dc2626"/>
<line x1="795.0" y1="189.0" x2="795.0" y2="188.7" stroke="#dc2626"/>
<circle cx="795.0" cy="188.8" r="3.5" fill="#dc2626"/>
<line x1="885.0" y1="170.7" x2="885.0" y2="168.3" stroke="#dc2626"/>
<circle cx="885.0" cy="169.5" r="3.5" fill="#dc2626"/>
<line x1="937.6" y1="165.9" x2="937.6" y2="160.0" stroke="#dc2626"/>
<circle cx="937.6" cy="162.9" r="3.5" fill="#dc2626"/>
<line x1="975.0" y1="167.0" x2="975.0" y2="160.1" stroke="#dc2626"/>
<circle cx="975.0" cy="163.6" r="3.5" fill="#dc2626"/>
<line x1="1027.6" y1="158.9" x2="1027.6" y2="147.5" stroke="#dc2626"/>
<circle cx="1027.6" cy="153.2" r="3.5" fill="#dc2626"/>
<line x1="1065.0" y1="145.3" x2="1065.0" y2="142.3" stroke="#dc2626"/>
<circle cx="1065.0" cy="143.8" r="3.5" fill="#dc2626"/>
<polyline points="615.0,224.9 705.0,199.4 795.0,188.8 885.0,169.5 937.6,162.9 975.0,163.6 1027.6,153.2 1065.0,143.8" fill="none" stroke="#dc2626" stroke-width="2"/>
<line x1="615.0" y1="143.7" x2="615.0" y2="139.3" stroke="#7c3aed"/>
<circle cx="615.0" cy="141.5" r="3.5" fill="#7c3aed"/>
<line x1="705.0" y1="131.9" x2="705.0" y2="129.2" stroke="#7c3aed"/>
<circle cx="705.0" cy="130.6" r="3.5" fill="#7c3aed"/>
<line x1="795.0" y1="128.7" x2="795.0" y2="124.9" stroke="#7c3aed"/>
<circle cx="795.0" cy="126.8" r="3.5" fill="#7c3aed"/>
<line x1="885.0" y1="122.8" x2="885.0" y2="117.4" stroke="#7c3aed"/>
<circle cx="885.0" cy="120.1" r="3.5" fill="#7c3aed"/>
<line x1="937.6" y1="122.2" x2="937.6" y2="120.9" stroke="#7c3aed"/>
<circle cx="937.6" cy="121.6" r="3.5" fill="#7c3aed"/>
<circle cx="975.0" cy="114.6" r="3.5" fill="#7c3aed"/>
<line x1="1027.6" y1="122.9" x2="1027.6" y2="115.9" stroke="#7c3aed"/>
<circle cx="1027.6" cy="119.4" r="3.5" fill="#7c3aed"/>
<circle cx="1065.0" cy="118.2" r="3.5" fill="#7c3aed"/>
<polyline points="615.0,141.5 705.0,130.6 795.0,126.8 885.0,120.1 937.6,121.6 975.0,114.6 1027.6,119.4 1065.0,118.2" fill="none" stroke="#7c3aed" stroke-width="2"/>
</svg>
