<svg xmlns="http://www.w3.org/2000/svg" width="900" height="490" viewBox="0 0 900 490">
<rect width="100%" height="100%" fill="white"/>
<text x="450" y="27" text-anchor="middle" font-family="sans-serif" font-size="24.5">χ(L)/L² 的临界幂律拟合</text>
<rect x="90" y="55" width="740" height="345" fill="none" stroke="#555"/>
<line x1="90.0" y1="400" x2="90.0" y2="405" stroke="#555"/>
<text x="90.0" y="422" text-anchor="middle" font-family="sans-serif" font-size="16.4">64</text>
<line x1="336.7" y1="400" x2="336.7" y2="405" stroke="#555"/>
<text x="336.7" y="422" text-anchor="middle" font-family="sans-serif" font-size="16.4">128</text>
<line x1="583.3" y1="400" x2="583.3" y2="405" stroke="#555"/>
<text x="583.3" y="422" text-anchor="middle" font-family="sans-serif" font-size="16.4">256</text>
<line x1="830.0" y1="400" x2="830.0" y2="405" stroke="#555"/>
<text x="830.0" y="422" text-anchor="middle" font-family="sans-serif" font-size="16.4">512</text>
<line x1="90" y1="376.2" x2="830" y2="376.2" stroke="#e5e7eb"/>
<text x="81" y="380.2" text-anchor="end" font-family="sans-serif" font-size="16.4">0.03</text>
<line x1="90" y1="309.4" x2="830" y2="309.4" stroke="#e5e7eb"/>
<text x="81" y="313.4" text-anchor="end" font-family="sans-serif" font-size="16.4">0.05</text>
<line x1="90" y1="247.9" x2="830" y2="247.9" stroke="#e5e7eb"/>
<text x="81" y="251.9" text-anchor="end" font-family="sans-serif" font-size="16.4">0.08</text>
<line x1="90" y1="218.8" x2="830" y2="218.8" stroke="#e5e7eb"/>
<text x="81" y="222.8" text-anchor="end" font-family="sans-serif" font-size="16.4">0.1</text>
<line x1="90" y1="165.8" x2="830" y2="165.8" stroke="#e5e7eb"/>
<text x="81" y="169.8" text-anchor="end" font-family="sans-serif" font-size="16.4">0.15</text>
<line x1="90" y1="128.2" x2="830" y2="128.2" stroke="#e5e7eb"/>
<text x="81" y="132.2" text-anchor="end" font-family="sans-serif" font-size="16.4">0.2</text>
<line x1="90" y1="75.2" x2="830" y2="75.2" stroke="#e5e7eb"/>
<text x="81" y="79.2" text-anchor="end" font-family="sans-serif" font-size="16.4">0.3</text>
<text x="460.0" y="466" text-anchor="middle" font-family="sans-serif" font-size="16.4">L</text>
<text x="28" y="227.5" text-anchor="middle" font-family="sans-serif" font-size="16.4" transform="rotate(-90 28 227.5)">χ/L²</text>
<line x1="90.0" y1="182.8" x2="90.0" y2="182.4" stroke="#2563eb"/>
<circle cx="90.0" cy="182.6" r="4" fill="#2563eb"/>
<line x1="336.7" y1="219.4" x2="336.7" y2="218.4" stroke="#2563eb"/>
<circle cx="336.7" cy="218.9" r="4" fill="#2563eb"/>
<line x1="583.3" y1="255.1" x2="583.3" y2="254.2" stroke="#2563eb"/>
<circle cx="583.3" cy="254.6" r="4" fill="#2563eb"/>
<line x1="830.0" y1="286.6" x2="830.0" y2="286.3" stroke="#2563eb"/>
<circle cx="830.0" cy="286.5" r="4" fill="#2563eb"/>
<polyline points="90.0,185.8 830.0,287.1" fill="none" stroke="#2563eb" stroke-width="2" stroke-dasharray="6,4"/>
<line x1="605" y1="320" x2="629" y2="320" stroke="#2563eb" stroke-width="3"/>
<text x="636" y="324" font-family="sans-serif" font-size="16.4">σ=1.75, η=0.3729</text>
<line x1="90.0" y1="154.9" x2="90.0" y2="154.1" stroke="#16a34a"/>
<circle cx="90.0" cy="154.5" r="4" fill="#16a34a"/>
<line x1="336.7" y1="186.9" x2="336.7" y2="185.2" stroke="#16a34a"/>
<circle cx="336.7" cy="186.0" r="4" fill="#16a34a"/>
<line x1="583.3" y1="215.3" x2="583.3" y2="215.1" stroke="#16a34a"/>
<circle cx="583.3" cy="215.2" r="4" fill="#16a34a"/>
<line x1="830.0" y1="244.5" x2="830.0" y2="243.7" stroke="#16a34a"/>
<circle cx="830.0" cy="244.1" r="4" fill="#16a34a"/>
<polyline points="90.0,157.0 830.0,244.2" fill="none" stroke="#16a34a" stroke-width="2" stroke-dasharray="6,4"/>
<line x1="605" y1="340" x2="629" y2="340" stroke="#16a34a" stroke-width="3"/>
<text x="636" y="344" font-family="sans-serif" font-size="16.4">σ=1.875, η=0.3204</text>
<line x1="90.0" y1="132.1" x2="90.0" y2="131.8" stroke="#dc2626"/>
<circle cx="90.0" cy="132.0" r="4" fill="#dc2626"/>
<line x1="336.7" y1="160.8" x2="336.7" y2="157.8" stroke="#dc2626"/>
<circle cx="336.7" cy="159.3" r="4" fill="#dc2626"/>
<line x1="583.3" y1="187.4" x2="583.3" y2="187.3" stroke="#dc2626"/>
<circle cx="583.3" cy="187.3" r="4" fill="#dc2626"/>
<line x1="830.0" y1="212.8" x2="830.0" y2="211.4" stroke="#dc2626"/>
<circle cx="830.0" cy="212.1" r="4" fill="#dc2626"/>
<polyline points="90.0,133.4 830.0,212.6" fill="none" stroke="#dc2626" stroke-width="2" stroke-dasharray="6,4"/>
<line x1="605" y1="360" x2="629" y2="360" stroke="#dc2626" stroke-width="3"/>
<text x="636" y="364" font-family="sans-serif" font-size="16.4">σ=2, η=0.2915</text>
<line x1="90.0" y1="83.8" x2="90.0" y2="83.1" stroke="#7c3aed"/>
<circle cx="90.0" cy="83.4" r="4" fill="#7c3aed"/>
<line x1="336.7" y1="106.3" x2="336.7" y2="106.1" stroke="#7c3aed"/>
<circle cx="336.7" cy="106.2" r="4" fill="#7c3aed"/>
<line x1="583.3" y1="130.0" x2="583.3" y2="129.3" stroke="#7c3aed"/>
<circle cx="583.3" cy="129.7" r="4" fill="#7c3aed"/>
<line x1="830.0" y1="152.7" x2="830.0" y2="152.0" stroke="#7c3aed"/>
<circle cx="830.0" cy="152.3" r="4" fill="#7c3aed"/>
<polyline points="90.0,83.3 830.0,152.5" fill="none" stroke="#7c3aed" stroke-width="2" stroke-dasharray="6,4"/>
<line x1="605" y1="380" x2="629" y2="380" stroke="#7c3aed" stroke-width="3"/>
<text x="636" y="384" font-family="sans-serif" font-size="16.4">σ=2.5, η=0.2546</text>
</svg>
